<svg width="32" height="32" viewBox="0 0 32 32" fill="none" xmlns="http://www.w3.org/2000/svg">
<style>
        @media (prefers-color-scheme: dark) { 
            svg path { fill: white; }
        } 
        @media (prefers-color-scheme: light) {
            svg path { fill: black; }
        }
    </style>
<path d="M14.4541 22.8299H4.11169V9.1701H6.74609V20.4882H14.4541V22.8299Z" fill="black"/>
<path d="M20.2085 22.8299H17.5741V9.1701H23.9162C26.2579 9.1701 28.1117 10.7312 28.1117 12.8778C28.1117 14.6145 27.3506 15.7463 25.7895 16.3318C27.2726 16.3318 27.9166 17.0343 27.9166 18.2636V22.8299H25.2822V18.9271C25.2822 17.9514 24.9894 17.6587 24.0137 17.6587H20.2085V22.8299ZM20.2085 11.5118V15.3561H23.1356C24.6967 15.3561 25.4773 14.6535 25.4773 13.3851C25.4773 12.1167 24.6967 11.5118 23.1356 11.5118H20.2085Z" fill="black"/>
</svg>
