<?xml version="1.0" encoding="UTF-8"?>
<svg width="158px" height="35px" viewBox="0 0 158 35" version="1.1" xmlns="http://www.w3.org/2000/svg" xmlns:xlink="http://www.w3.org/1999/xlink">
    <title>Group 2</title>
    <g id="Page-1" stroke="none" stroke-width="1" fill="none" fill-rule="evenodd">
        <g id="Desktop-HD" transform="translate(-1089.000000, -1460.000000)">
            <g id="Group-2" transform="translate(1089.000000, 1460.000000)">
                <path d="M17.5,0 L140.5,0 C150.164983,-1.7754286e-15 158,7.83501688 158,17.5 C158,27.1649831 150.164983,35 140.5,35 L17.5,35 C7.83501688,35 1.18361906e-15,27.1649831 0,17.5 C-1.18361906e-15,7.83501688 7.83501688,1.7754286e-15 17.5,0 Z" id="Rectangle" fill="#FF4000"></path>
                <g id="Projekt-anfragen" transform="translate(17.528000, 11.112000)" fill="#FFFFFF" fill-rule="nonzero">
                    <path d="M0,11.888 L0,0.32 L3.912,0.32 C4.73866667,0.32 5.47466667,0.458666667 6.12,0.736 C6.76533333,1.01333333 7.27333333,1.424 7.644,1.968 C8.01466667,2.512 8.2,3.18133333 8.2,3.976 C8.2,4.744 8.028,5.4 7.684,5.944 C7.34,6.488 6.86133333,6.90133333 6.248,7.184 C5.63466667,7.46666667 4.92266667,7.608 4.112,7.608 L1.52,7.608 L1.52,11.888 L0,11.888 Z M1.512,6.36 L4.08,6.36 C4.87466667,6.36 5.52,6.13866667 6.016,5.696 C6.512,5.25333333 6.76,4.65066667 6.76,3.888 C6.76,3.12 6.504,2.53866667 5.992,2.144 C5.48,1.74933333 4.81866667,1.552 4.008,1.552 L1.512,1.552 L1.512,6.36 Z" id="Shape"></path>
                    <path d="M9.88,11.888 L9.88,3.616 L11.288,3.616 L11.288,5.208 C11.4266667,4.81333333 11.6213333,4.48666667 11.872,4.228 C12.1226667,3.96933333 12.4093333,3.776 12.732,3.648 C13.0546667,3.52 13.3893333,3.456 13.736,3.456 C13.8586667,3.456 13.9786667,3.464 14.096,3.48 C14.2133333,3.496 14.304,3.52266667 14.368,3.56 L14.368,4.992 C14.288,4.95466667 14.1853333,4.92933333 14.06,4.916 C13.9346667,4.90266667 13.8293333,4.896 13.744,4.896 C13.4133333,4.87466667 13.104,4.89466667 12.816,4.956 C12.528,5.01733333 12.2746667,5.12266667 12.056,5.272 C11.8373333,5.42133333 11.6653333,5.61733333 11.54,5.86 C11.4146667,6.10266667 11.352,6.39733333 11.352,6.744 L11.352,11.888 L9.88,11.888 Z" id="Path"></path>
                    <path d="M19.368,12.048 C18.6053333,12.048 17.9386667,11.884 17.368,11.556 C16.7973333,11.228 16.3546667,10.7466667 16.04,10.112 C15.7253333,9.47733333 15.568,8.70133333 15.568,7.784 C15.568,6.92 15.7146667,6.16266667 16.008,5.512 C16.3013333,4.86133333 16.732,4.356 17.3,3.996 C17.868,3.636 18.5573333,3.456 19.368,3.456 C20.1306667,3.456 20.7933333,3.62266667 21.356,3.956 C21.9186667,4.28933333 22.3546667,4.77866667 22.664,5.424 C22.9733333,6.06933333 23.128,6.856 23.128,7.784 C23.128,8.62666667 22.9853333,9.368 22.7,10.008 C22.4146667,10.648 21.9933333,11.148 21.436,11.508 C20.8786667,11.868 20.1893333,12.048 19.368,12.048 Z M19.368,10.88 C19.864,10.88 20.2826667,10.7546667 20.624,10.504 C20.9653333,10.2533333 21.224,9.89333333 21.4,9.424 C21.576,8.95466667 21.664,8.39733333 21.664,7.752 C21.664,7.16 21.5866667,6.628 21.432,6.156 C21.2773333,5.684 21.0306667,5.30933333 20.692,5.032 C20.3533333,4.75466667 19.912,4.616 19.368,4.616 C18.8666667,4.616 18.4426667,4.74 18.096,4.988 C17.7493333,5.236 17.4866667,5.59466667 17.308,6.064 C17.1293333,6.53333333 17.04,7.096 17.04,7.752 C17.04,8.33333333 17.12,8.86133333 17.28,9.336 C17.44,9.81066667 17.6906667,10.1866667 18.032,10.464 C18.3733333,10.7413333 18.8186667,10.88 19.368,10.88 Z" id="Shape"></path>
                    <path d="M26.784,12.256 C26.784,13.0293333 26.6173333,13.604 26.284,13.98 C25.9506667,14.356 25.3626667,14.544 24.52,14.544 C24.0666667,14.544 23.78,14.512 23.66,14.448 C23.54,14.384 23.48,14.352 23.48,14.352 L23.48,13.368 L24.296,13.328 C24.6693333,13.3013333 24.9306667,13.2026667 25.08,13.032 C25.2293333,12.8613333 25.304,12.5866667 25.304,12.208 L25.304,3.616 L26.784,3.616 L26.784,12.256 Z M26.824,0.328 L26.824,1.864 L25.256,1.864 L25.256,0.328 L26.824,0.328 Z" id="Shape"></path>
                    <path d="M30.328,8.096 C30.328,8.61866667 30.4146667,9.092 30.588,9.516 C30.7613333,9.94 31.0253333,10.2773333 31.38,10.528 C31.7346667,10.7786667 32.1786667,10.904 32.712,10.904 C33.24,10.904 33.6946667,10.7813333 34.076,10.536 C34.4573333,10.2906667 34.7013333,9.936 34.808,9.472 L36.208,9.472 C36.1066667,10.032 35.8826667,10.504 35.536,10.888 C35.1893333,11.272 34.7706667,11.5613333 34.28,11.756 C33.7893333,11.9506667 33.2773333,12.048 32.744,12.048 C31.9706667,12.048 31.2906667,11.88 30.704,11.544 C30.1173333,11.208 29.6586667,10.7253333 29.328,10.096 C28.9973333,9.46666667 28.832,8.712 28.832,7.832 C28.832,6.96266667 28.9813333,6.2 29.28,5.544 C29.5786667,4.888 30.012,4.376 30.58,4.008 C31.148,3.64 31.832,3.456 32.632,3.456 C33.4106667,3.456 34.0693333,3.624 34.608,3.96 C35.1466667,4.296 35.556,4.76933333 35.836,5.38 C36.116,5.99066667 36.256,6.71466667 36.256,7.552 L36.256,8.096 L30.328,8.096 Z M30.336,7.096 L34.832,7.096 C34.832,6.62133333 34.752,6.19333333 34.592,5.812 C34.432,5.43066667 34.188,5.12933333 33.86,4.908 C33.532,4.68666667 33.12,4.576 32.624,4.576 C32.1066667,4.576 31.6786667,4.7 31.34,4.948 C31.0013333,5.196 30.748,5.51333333 30.58,5.9 C30.412,6.28666667 30.3306667,6.68533333 30.336,7.096 Z" id="Shape"></path>
                    <polygon id="Path" points="45.544 11.888 43.976 11.888 41.384 7.736 39.752 9.424 39.752 11.888 38.28 11.888 38.28 0 39.752 0 39.752 7.752 43.64 3.616 45.336 3.616 42.352 6.768"></polygon>
                    <path d="M51.616,4.696 L49.752,4.696 L49.752,9.84 C49.752,10.1333333 49.7826667,10.348 49.844,10.484 C49.9053333,10.62 50.0093333,10.7066667 50.156,10.744 C50.3026667,10.7813333 50.504,10.8 50.76,10.8 L51.664,10.8 L51.664,11.792 C51.5626667,11.8293333 51.4093333,11.8613333 51.204,11.888 C50.9986667,11.9146667 50.744,11.928 50.44,11.928 C49.8693333,11.928 49.4266667,11.8506667 49.112,11.696 C48.7973333,11.5413333 48.5773333,11.312 48.452,11.008 C48.3266667,10.704 48.264,10.3306667 48.264,9.888 L48.264,4.696 L46.92,4.696 L46.92,3.616 L48.304,3.616 L48.664,1.208 L49.752,1.208 L49.752,3.608 L51.616,3.608 L51.616,4.696 Z" id="Path"></path>
                    <path d="M59.72,12.048 C59.1866667,12.048 58.7146667,11.9533333 58.304,11.764 C57.8933333,11.5746667 57.572,11.3013333 57.34,10.944 C57.108,10.5866667 56.992,10.1546667 56.992,9.648 C56.992,8.73066667 57.312,8.048 57.952,7.6 C58.592,7.152 59.6186667,6.912 61.032,6.88 L62.512,6.84 L62.512,6.192 C62.512,5.68533333 62.36,5.284 62.056,4.988 C61.752,4.692 61.28,4.544 60.64,4.544 C60.1653333,4.54933333 59.748,4.66133333 59.388,4.88 C59.028,5.09866667 58.7946667,5.456 58.688,5.952 L57.384,5.952 C57.416,5.41333333 57.568,4.95866667 57.84,4.588 C58.112,4.21733333 58.492,3.936 58.98,3.744 C59.468,3.552 60.0453333,3.456 60.712,3.456 C61.432,3.456 62.0306667,3.55733333 62.508,3.76 C62.9853333,3.96266667 63.3426667,4.26133333 63.58,4.656 C63.8173333,5.05066667 63.936,5.536 63.936,6.112 L63.936,11.888 L62.672,11.888 L62.568,10.336 C62.248,10.9813333 61.8413333,11.428 61.348,11.676 C60.8546667,11.924 60.312,12.048 59.72,12.048 Z M60.168,10.984 C60.4453333,10.984 60.7213333,10.9333333 60.996,10.832 C61.2706667,10.7306667 61.5226667,10.5933333 61.752,10.42 C61.9813333,10.2466667 62.164,10.052 62.3,9.836 C62.436,9.62 62.5066667,9.39733333 62.512,9.168 L62.512,7.752 L61.28,7.776 C60.6506667,7.78666667 60.124,7.85066667 59.7,7.968 C59.276,8.08533333 58.9586667,8.26933333 58.748,8.52 C58.5373333,8.77066667 58.432,9.09866667 58.432,9.504 C58.432,9.968 58.5933333,10.3306667 58.916,10.592 C59.2386667,10.8533333 59.656,10.984 60.168,10.984 Z" id="Shape"></path>
                    <path d="M66.464,11.888 L66.464,3.616 L67.896,3.616 L67.896,4.816 C68.0293333,4.58666667 68.2146667,4.37066667 68.452,4.168 C68.6893333,3.96533333 68.9773333,3.80266667 69.316,3.68 C69.6546667,3.55733333 70.0453333,3.496 70.488,3.496 C71.0106667,3.496 71.492,3.6 71.932,3.808 C72.372,4.016 72.724,4.34 72.988,4.78 C73.252,5.22 73.384,5.78666667 73.384,6.48 L73.384,11.888 L71.904,11.888 L71.904,6.624 C71.904,5.97866667 71.7346667,5.5 71.396,5.188 C71.0573333,4.876 70.6186667,4.72 70.08,4.72 C69.7066667,4.72 69.3573333,4.78 69.032,4.9 C68.7066667,5.02 68.4426667,5.20133333 68.24,5.444 C68.0373333,5.68666667 67.936,5.992 67.936,6.36 L67.936,11.888 L66.464,11.888 Z" id="Path"></path>
                    <path d="M80.368,3.616 L80.368,4.696 L78.36,4.696 L78.36,11.888 L76.872,11.888 L76.872,4.696 L75.128,4.696 L75.128,3.616 L76.872,3.616 L76.872,2.336 C76.872,1.68 77.04,1.18 77.376,0.836 C77.712,0.492 78.2133333,0.32 78.88,0.32 L80.44,0.32 L80.448,1.368 L79.208,1.368 C78.872,1.368 78.6426667,1.45866667 78.52,1.64 C78.3973333,1.82133333 78.336,2.096 78.336,2.464 L78.336,3.616 L80.368,3.616 Z" id="Path"></path>
                    <path d="M82.192,11.888 L82.192,3.616 L83.6,3.616 L83.6,5.208 C83.7386667,4.81333333 83.9333333,4.48666667 84.184,4.228 C84.4346667,3.96933333 84.7213333,3.776 85.044,3.648 C85.3666667,3.52 85.7013333,3.456 86.048,3.456 C86.1706667,3.456 86.2906667,3.464 86.408,3.48 C86.5253333,3.496 86.616,3.52266667 86.68,3.56 L86.68,4.992 C86.6,4.95466667 86.4973333,4.92933333 86.372,4.916 C86.2466667,4.90266667 86.1413333,4.896 86.056,4.896 C85.7253333,4.87466667 85.416,4.89466667 85.128,4.956 C84.84,5.01733333 84.5866667,5.12266667 84.368,5.272 C84.1493333,5.42133333 83.9773333,5.61733333 83.852,5.86 C83.7266667,6.10266667 83.664,6.39733333 83.664,6.744 L83.664,11.888 L82.192,11.888 Z" id="Path"></path>
                    <path d="M90.68,12.048 C90.1466667,12.048 89.6746667,11.9533333 89.264,11.764 C88.8533333,11.5746667 88.532,11.3013333 88.3,10.944 C88.068,10.5866667 87.952,10.1546667 87.952,9.648 C87.952,8.73066667 88.272,8.048 88.912,7.6 C89.552,7.152 90.5786667,6.912 91.992,6.88 L93.472,6.84 L93.472,6.192 C93.472,5.68533333 93.32,5.284 93.016,4.988 C92.712,4.692 92.24,4.544 91.6,4.544 C91.1253333,4.54933333 90.708,4.66133333 90.348,4.88 C89.988,5.09866667 89.7546667,5.456 89.648,5.952 L88.344,5.952 C88.376,5.41333333 88.528,4.95866667 88.8,4.588 C89.072,4.21733333 89.452,3.936 89.94,3.744 C90.428,3.552 91.0053333,3.456 91.672,3.456 C92.392,3.456 92.9906667,3.55733333 93.468,3.76 C93.9453333,3.96266667 94.3026667,4.26133333 94.54,4.656 C94.7773333,5.05066667 94.896,5.536 94.896,6.112 L94.896,11.888 L93.632,11.888 L93.528,10.336 C93.208,10.9813333 92.8013333,11.428 92.308,11.676 C91.8146667,11.924 91.272,12.048 90.68,12.048 Z M91.128,10.984 C91.4053333,10.984 91.6813333,10.9333333 91.956,10.832 C92.2306667,10.7306667 92.4826667,10.5933333 92.712,10.42 C92.9413333,10.2466667 93.124,10.052 93.26,9.836 C93.396,9.62 93.4666667,9.39733333 93.472,9.168 L93.472,7.752 L92.24,7.776 C91.6106667,7.78666667 91.084,7.85066667 90.66,7.968 C90.236,8.08533333 89.9186667,8.26933333 89.708,8.52 C89.4973333,8.77066667 89.392,9.09866667 89.392,9.504 C89.392,9.968 89.5533333,10.3306667 89.876,10.592 C90.1986667,10.8533333 90.616,10.984 91.128,10.984 Z" id="Shape"></path>
                    <path d="M100.912,14.624 C99.6106667,14.624 98.5986667,14.436 97.876,14.06 C97.1533333,13.684 96.792,13.1466667 96.792,12.448 C96.792,12.1493333 96.8613333,11.8946667 97,11.684 C97.1386667,11.4733333 97.304,11.2986667 97.496,11.16 C97.688,11.0213333 97.8666667,10.9106667 98.032,10.828 C98.1973333,10.7453333 98.304,10.6853333 98.352,10.648 C98.2613333,10.5946667 98.148,10.528 98.012,10.448 C97.876,10.368 97.7573333,10.2613333 97.656,10.128 C97.5546667,9.99466667 97.504,9.82133333 97.504,9.608 C97.504,9.34666667 97.6266667,9.10666667 97.872,8.888 C98.1173333,8.66933333 98.48,8.50666667 98.96,8.4 C98.4746667,8.15466667 98.096,7.82933333 97.824,7.424 C97.552,7.01866667 97.416,6.57866667 97.416,6.104 C97.416,5.57066667 97.5613333,5.10666667 97.852,4.712 C98.1426667,4.31733333 98.5573333,4.01466667 99.096,3.804 C99.6346667,3.59333333 100.274667,3.488 101.016,3.488 C101.554667,3.488 102.008,3.55066667 102.376,3.676 C102.744,3.80133333 103.085333,3.97866667 103.4,4.208 C103.485333,4.17066667 103.62,4.11333333 103.804,4.036 C103.988,3.95866667 104.192,3.87466667 104.416,3.784 C104.64,3.69333333 104.849333,3.60666667 105.044,3.524 C105.238667,3.44133333 105.394667,3.37866667 105.512,3.336 L105.504,4.704 L104.056,4.976 C104.136,5.14666667 104.201333,5.33333333 104.252,5.536 C104.302667,5.73866667 104.328,5.928 104.328,6.104 C104.328,6.58933333 104.201333,7.02933333 103.948,7.424 C103.694667,7.81866667 103.312,8.13333333 102.8,8.368 C102.288,8.60266667 101.648,8.72 100.88,8.72 C100.816,8.72 100.734667,8.71866667 100.636,8.716 C100.537333,8.71333333 100.453333,8.70933333 100.384,8.704 C99.8186667,8.72 99.4293333,8.78266667 99.216,8.892 C99.0026667,9.00133333 98.896,9.12266667 98.896,9.256 C98.896,9.41066667 99.016,9.51733333 99.256,9.576 C99.496,9.63466667 99.904,9.68533333 100.48,9.728 C100.688,9.73866667 100.945333,9.752 101.252,9.768 C101.558667,9.784 101.898667,9.80533333 102.272,9.832 C103.141333,9.88533333 103.810667,10.1066667 104.28,10.496 C104.749333,10.8853333 104.984,11.4106667 104.984,12.072 C104.984,12.824 104.648,13.4373333 103.976,13.912 C103.304,14.3866667 102.282667,14.624 100.912,14.624 Z M101.176,13.672 C101.938667,13.672 102.522667,13.5573333 102.928,13.328 C103.333333,13.0986667 103.536,12.752 103.536,12.288 C103.536,11.9573333 103.412,11.6866667 103.164,11.476 C102.916,11.2653333 102.538667,11.144 102.032,11.112 L99.712,10.96 C99.504,10.9493333 99.288,11.0013333 99.064,11.116 C98.84,11.2306667 98.6493333,11.3893333 98.492,11.592 C98.3346667,11.7946667 98.256,12.024 98.256,12.28 C98.256,12.7173333 98.4946667,13.0586667 98.972,13.304 C99.4493333,13.5493333 100.184,13.672 101.176,13.672 Z M100.92,7.768 C101.517333,7.768 101.998667,7.62933333 102.364,7.352 C102.729333,7.07466667 102.912,6.664 102.912,6.12 C102.912,5.56 102.729333,5.13333333 102.364,4.84 C101.998667,4.54666667 101.517333,4.4 100.92,4.4 C100.317333,4.4 99.8306667,4.548 99.46,4.844 C99.0893333,5.14 98.904,5.56533333 98.904,6.12 C98.904,6.64266667 99.08,7.048 99.432,7.336 C99.784,7.624 100.28,7.768 100.92,7.768 Z" id="Shape"></path>
                    <path d="M108.416,8.096 C108.416,8.61866667 108.502667,9.092 108.676,9.516 C108.849333,9.94 109.113333,10.2773333 109.468,10.528 C109.822667,10.7786667 110.266667,10.904 110.8,10.904 C111.328,10.904 111.782667,10.7813333 112.164,10.536 C112.545333,10.2906667 112.789333,9.936 112.896,9.472 L114.296,9.472 C114.194667,10.032 113.970667,10.504 113.624,10.888 C113.277333,11.272 112.858667,11.5613333 112.368,11.756 C111.877333,11.9506667 111.365333,12.048 110.832,12.048 C110.058667,12.048 109.378667,11.88 108.792,11.544 C108.205333,11.208 107.746667,10.7253333 107.416,10.096 C107.085333,9.46666667 106.92,8.712 106.92,7.832 C106.92,6.96266667 107.069333,6.2 107.368,5.544 C107.666667,4.888 108.1,4.376 108.668,4.008 C109.236,3.64 109.92,3.456 110.72,3.456 C111.498667,3.456 112.157333,3.624 112.696,3.96 C113.234667,4.296 113.644,4.76933333 113.924,5.38 C114.204,5.99066667 114.344,6.71466667 114.344,7.552 L114.344,8.096 L108.416,8.096 Z M108.424,7.096 L112.92,7.096 C112.92,6.62133333 112.84,6.19333333 112.68,5.812 C112.52,5.43066667 112.276,5.12933333 111.948,4.908 C111.62,4.68666667 111.208,4.576 110.712,4.576 C110.194667,4.576 109.766667,4.7 109.428,4.948 C109.089333,5.196 108.836,5.51333333 108.668,5.9 C108.5,6.28666667 108.418667,6.68533333 108.424,7.096 Z" id="Shape"></path>
                    <path d="M116.368,11.888 L116.368,3.616 L117.8,3.616 L117.8,4.816 C117.933333,4.58666667 118.118667,4.37066667 118.356,4.168 C118.593333,3.96533333 118.881333,3.80266667 119.22,3.68 C119.558667,3.55733333 119.949333,3.496 120.392,3.496 C120.914667,3.496 121.396,3.6 121.836,3.808 C122.276,4.016 122.628,4.34 122.892,4.78 C123.156,5.22 123.288,5.78666667 123.288,6.48 L123.288,11.888 L121.808,11.888 L121.808,6.624 C121.808,5.97866667 121.638667,5.5 121.3,5.188 C120.961333,4.876 120.522667,4.72 119.984,4.72 C119.610667,4.72 119.261333,4.78 118.936,4.9 C118.610667,5.02 118.346667,5.20133333 118.144,5.444 C117.941333,5.68666667 117.84,5.992 117.84,6.36 L117.84,11.888 L116.368,11.888 Z" id="Path"></path>
                </g>
            </g>
        </g>
    </g>
</svg>