<?xml version="1.0" encoding="UTF-8"?>
<svg width="180px" height="35px" viewBox="0 0 180 35" version="1.1" xmlns="http://www.w3.org/2000/svg" xmlns:xlink="http://www.w3.org/1999/xlink">
    <title>Group</title>
    <g id="Page-1" stroke="none" stroke-width="1" fill="none" fill-rule="evenodd">
        <g id="Desktop-HD" transform="translate(-1078.000000, -1503.000000)">
            <g id="Group" transform="translate(1078.000000, 1503.000000)">
                <path d="M17.5,0 L162.5,0 C172.164983,-1.7754286e-15 180,7.83501688 180,17.5 C180,27.1649831 172.164983,35 162.5,35 L17.5,35 C7.83501688,35 1.18361906e-15,27.1649831 0,17.5 C-1.18361906e-15,7.83501688 7.83501688,1.7754286e-15 17.5,0 Z" id="Rectangle-Copy" fill="#DBDBDB"></path>
                <g id="Vorgang-abbrechen" transform="translate(16.368000, 11.112000)" fill="#000000" fill-rule="nonzero">
                    <polygon id="Path" points="9.92 0.32 5.816 11.888 4.032 11.888 0 0.32 1.464 0.32 4.928 10.2 8.464 0.32"></polygon>
                    <path d="M14.8,12.048 C14.0373333,12.048 13.3706667,11.884 12.8,11.556 C12.2293333,11.228 11.7866667,10.7466667 11.472,10.112 C11.1573333,9.47733333 11,8.70133333 11,7.784 C11,6.92 11.1466667,6.16266667 11.44,5.512 C11.7333333,4.86133333 12.164,4.356 12.732,3.996 C13.3,3.636 13.9893333,3.456 14.8,3.456 C15.5626667,3.456 16.2253333,3.62266667 16.788,3.956 C17.3506667,4.28933333 17.7866667,4.77866667 18.096,5.424 C18.4053333,6.06933333 18.56,6.856 18.56,7.784 C18.56,8.62666667 18.4173333,9.368 18.132,10.008 C17.8466667,10.648 17.4253333,11.148 16.868,11.508 C16.3106667,11.868 15.6213333,12.048 14.8,12.048 Z M14.8,10.88 C15.296,10.88 15.7146667,10.7546667 16.056,10.504 C16.3973333,10.2533333 16.656,9.89333333 16.832,9.424 C17.008,8.95466667 17.096,8.39733333 17.096,7.752 C17.096,7.16 17.0186667,6.628 16.864,6.156 C16.7093333,5.684 16.4626667,5.30933333 16.124,5.032 C15.7853333,4.75466667 15.344,4.616 14.8,4.616 C14.2986667,4.616 13.8746667,4.74 13.528,4.988 C13.1813333,5.236 12.9186667,5.59466667 12.74,6.064 C12.5613333,6.53333333 12.472,7.096 12.472,7.752 C12.472,8.33333333 12.552,8.86133333 12.712,9.336 C12.872,9.81066667 13.1226667,10.1866667 13.464,10.464 C13.8053333,10.7413333 14.2506667,10.88 14.8,10.88 Z" id="Shape"></path>
                    <path d="M20.504,11.888 L20.504,3.616 L21.912,3.616 L21.912,5.208 C22.0506667,4.81333333 22.2453333,4.48666667 22.496,4.228 C22.7466667,3.96933333 23.0333333,3.776 23.356,3.648 C23.6786667,3.52 24.0133333,3.456 24.36,3.456 C24.4826667,3.456 24.6026667,3.464 24.72,3.48 C24.8373333,3.496 24.928,3.52266667 24.992,3.56 L24.992,4.992 C24.912,4.95466667 24.8093333,4.92933333 24.684,4.916 C24.5586667,4.90266667 24.4533333,4.896 24.368,4.896 C24.0373333,4.87466667 23.728,4.89466667 23.44,4.956 C23.152,5.01733333 22.8986667,5.12266667 22.68,5.272 C22.4613333,5.42133333 22.2893333,5.61733333 22.164,5.86 C22.0386667,6.10266667 21.976,6.39733333 21.976,6.744 L21.976,11.888 L20.504,11.888 Z" id="Path"></path>
                    <path d="M30.192,14.624 C28.8906667,14.624 27.8786667,14.436 27.156,14.06 C26.4333333,13.684 26.072,13.1466667 26.072,12.448 C26.072,12.1493333 26.1413333,11.8946667 26.28,11.684 C26.4186667,11.4733333 26.584,11.2986667 26.776,11.16 C26.968,11.0213333 27.1466667,10.9106667 27.312,10.828 C27.4773333,10.7453333 27.584,10.6853333 27.632,10.648 C27.5413333,10.5946667 27.428,10.528 27.292,10.448 C27.156,10.368 27.0373333,10.2613333 26.936,10.128 C26.8346667,9.99466667 26.784,9.82133333 26.784,9.608 C26.784,9.34666667 26.9066667,9.10666667 27.152,8.888 C27.3973333,8.66933333 27.76,8.50666667 28.24,8.4 C27.7546667,8.15466667 27.376,7.82933333 27.104,7.424 C26.832,7.01866667 26.696,6.57866667 26.696,6.104 C26.696,5.57066667 26.8413333,5.10666667 27.132,4.712 C27.4226667,4.31733333 27.8373333,4.01466667 28.376,3.804 C28.9146667,3.59333333 29.5546667,3.488 30.296,3.488 C30.8346667,3.488 31.288,3.55066667 31.656,3.676 C32.024,3.80133333 32.3653333,3.97866667 32.68,4.208 C32.7653333,4.17066667 32.9,4.11333333 33.084,4.036 C33.268,3.95866667 33.472,3.87466667 33.696,3.784 C33.92,3.69333333 34.1293333,3.60666667 34.324,3.524 C34.5186667,3.44133333 34.6746667,3.37866667 34.792,3.336 L34.784,4.704 L33.336,4.976 C33.416,5.14666667 33.4813333,5.33333333 33.532,5.536 C33.5826667,5.73866667 33.608,5.928 33.608,6.104 C33.608,6.58933333 33.4813333,7.02933333 33.228,7.424 C32.9746667,7.81866667 32.592,8.13333333 32.08,8.368 C31.568,8.60266667 30.928,8.72 30.16,8.72 C30.096,8.72 30.0146667,8.71866667 29.916,8.716 C29.8173333,8.71333333 29.7333333,8.70933333 29.664,8.704 C29.0986667,8.72 28.7093333,8.78266667 28.496,8.892 C28.2826667,9.00133333 28.176,9.12266667 28.176,9.256 C28.176,9.41066667 28.296,9.51733333 28.536,9.576 C28.776,9.63466667 29.184,9.68533333 29.76,9.728 C29.968,9.73866667 30.2253333,9.752 30.532,9.768 C30.8386667,9.784 31.1786667,9.80533333 31.552,9.832 C32.4213333,9.88533333 33.0906667,10.1066667 33.56,10.496 C34.0293333,10.8853333 34.264,11.4106667 34.264,12.072 C34.264,12.824 33.928,13.4373333 33.256,13.912 C32.584,14.3866667 31.5626667,14.624 30.192,14.624 Z M30.456,13.672 C31.2186667,13.672 31.8026667,13.5573333 32.208,13.328 C32.6133333,13.0986667 32.816,12.752 32.816,12.288 C32.816,11.9573333 32.692,11.6866667 32.444,11.476 C32.196,11.2653333 31.8186667,11.144 31.312,11.112 L28.992,10.96 C28.784,10.9493333 28.568,11.0013333 28.344,11.116 C28.12,11.2306667 27.9293333,11.3893333 27.772,11.592 C27.6146667,11.7946667 27.536,12.024 27.536,12.28 C27.536,12.7173333 27.7746667,13.0586667 28.252,13.304 C28.7293333,13.5493333 29.464,13.672 30.456,13.672 Z M30.2,7.768 C30.7973333,7.768 31.2786667,7.62933333 31.644,7.352 C32.0093333,7.07466667 32.192,6.664 32.192,6.12 C32.192,5.56 32.0093333,5.13333333 31.644,4.84 C31.2786667,4.54666667 30.7973333,4.4 30.2,4.4 C29.5973333,4.4 29.1106667,4.548 28.74,4.844 C28.3693333,5.14 28.184,5.56533333 28.184,6.12 C28.184,6.64266667 28.36,7.048 28.712,7.336 C29.064,7.624 29.56,7.768 30.2,7.768 Z" id="Shape"></path>
                    <path d="M38.928,12.048 C38.3946667,12.048 37.9226667,11.9533333 37.512,11.764 C37.1013333,11.5746667 36.78,11.3013333 36.548,10.944 C36.316,10.5866667 36.2,10.1546667 36.2,9.648 C36.2,8.73066667 36.52,8.048 37.16,7.6 C37.8,7.152 38.8266667,6.912 40.24,6.88 L41.72,6.84 L41.72,6.192 C41.72,5.68533333 41.568,5.284 41.264,4.988 C40.96,4.692 40.488,4.544 39.848,4.544 C39.3733333,4.54933333 38.956,4.66133333 38.596,4.88 C38.236,5.09866667 38.0026667,5.456 37.896,5.952 L36.592,5.952 C36.624,5.41333333 36.776,4.95866667 37.048,4.588 C37.32,4.21733333 37.7,3.936 38.188,3.744 C38.676,3.552 39.2533333,3.456 39.92,3.456 C40.64,3.456 41.2386667,3.55733333 41.716,3.76 C42.1933333,3.96266667 42.5506667,4.26133333 42.788,4.656 C43.0253333,5.05066667 43.144,5.536 43.144,6.112 L43.144,11.888 L41.88,11.888 L41.776,10.336 C41.456,10.9813333 41.0493333,11.428 40.556,11.676 C40.0626667,11.924 39.52,12.048 38.928,12.048 Z M39.376,10.984 C39.6533333,10.984 39.9293333,10.9333333 40.204,10.832 C40.4786667,10.7306667 40.7306667,10.5933333 40.96,10.42 C41.1893333,10.2466667 41.372,10.052 41.508,9.836 C41.644,9.62 41.7146667,9.39733333 41.72,9.168 L41.72,7.752 L40.488,7.776 C39.8586667,7.78666667 39.332,7.85066667 38.908,7.968 C38.484,8.08533333 38.1666667,8.26933333 37.956,8.52 C37.7453333,8.77066667 37.64,9.09866667 37.64,9.504 C37.64,9.968 37.8013333,10.3306667 38.124,10.592 C38.4466667,10.8533333 38.864,10.984 39.376,10.984 Z" id="Shape"></path>
                    <path d="M45.672,11.888 L45.672,3.616 L47.104,3.616 L47.104,4.816 C47.2373333,4.58666667 47.4226667,4.37066667 47.66,4.168 C47.8973333,3.96533333 48.1853333,3.80266667 48.524,3.68 C48.8626667,3.55733333 49.2533333,3.496 49.696,3.496 C50.2186667,3.496 50.7,3.6 51.14,3.808 C51.58,4.016 51.932,4.34 52.196,4.78 C52.46,5.22 52.592,5.78666667 52.592,6.48 L52.592,11.888 L51.112,11.888 L51.112,6.624 C51.112,5.97866667 50.9426667,5.5 50.604,5.188 C50.2653333,4.876 49.8266667,4.72 49.288,4.72 C48.9146667,4.72 48.5653333,4.78 48.24,4.9 C47.9146667,5.02 47.6506667,5.20133333 47.448,5.444 C47.2453333,5.68666667 47.144,5.992 47.144,6.36 L47.144,11.888 L45.672,11.888 Z" id="Path"></path>
                    <path d="M58.392,14.624 C57.0906667,14.624 56.0786667,14.436 55.356,14.06 C54.6333333,13.684 54.272,13.1466667 54.272,12.448 C54.272,12.1493333 54.3413333,11.8946667 54.48,11.684 C54.6186667,11.4733333 54.784,11.2986667 54.976,11.16 C55.168,11.0213333 55.3466667,10.9106667 55.512,10.828 C55.6773333,10.7453333 55.784,10.6853333 55.832,10.648 C55.7413333,10.5946667 55.628,10.528 55.492,10.448 C55.356,10.368 55.2373333,10.2613333 55.136,10.128 C55.0346667,9.99466667 54.984,9.82133333 54.984,9.608 C54.984,9.34666667 55.1066667,9.10666667 55.352,8.888 C55.5973333,8.66933333 55.96,8.50666667 56.44,8.4 C55.9546667,8.15466667 55.576,7.82933333 55.304,7.424 C55.032,7.01866667 54.896,6.57866667 54.896,6.104 C54.896,5.57066667 55.0413333,5.10666667 55.332,4.712 C55.6226667,4.31733333 56.0373333,4.01466667 56.576,3.804 C57.1146667,3.59333333 57.7546667,3.488 58.496,3.488 C59.0346667,3.488 59.488,3.55066667 59.856,3.676 C60.224,3.80133333 60.5653333,3.97866667 60.88,4.208 C60.9653333,4.17066667 61.1,4.11333333 61.284,4.036 C61.468,3.95866667 61.672,3.87466667 61.896,3.784 C62.12,3.69333333 62.3293333,3.60666667 62.524,3.524 C62.7186667,3.44133333 62.8746667,3.37866667 62.992,3.336 L62.984,4.704 L61.536,4.976 C61.616,5.14666667 61.6813333,5.33333333 61.732,5.536 C61.7826667,5.73866667 61.808,5.928 61.808,6.104 C61.808,6.58933333 61.6813333,7.02933333 61.428,7.424 C61.1746667,7.81866667 60.792,8.13333333 60.28,8.368 C59.768,8.60266667 59.128,8.72 58.36,8.72 C58.296,8.72 58.2146667,8.71866667 58.116,8.716 C58.0173333,8.71333333 57.9333333,8.70933333 57.864,8.704 C57.2986667,8.72 56.9093333,8.78266667 56.696,8.892 C56.4826667,9.00133333 56.376,9.12266667 56.376,9.256 C56.376,9.41066667 56.496,9.51733333 56.736,9.576 C56.976,9.63466667 57.384,9.68533333 57.96,9.728 C58.168,9.73866667 58.4253333,9.752 58.732,9.768 C59.0386667,9.784 59.3786667,9.80533333 59.752,9.832 C60.6213333,9.88533333 61.2906667,10.1066667 61.76,10.496 C62.2293333,10.8853333 62.464,11.4106667 62.464,12.072 C62.464,12.824 62.128,13.4373333 61.456,13.912 C60.784,14.3866667 59.7626667,14.624 58.392,14.624 Z M58.656,13.672 C59.4186667,13.672 60.0026667,13.5573333 60.408,13.328 C60.8133333,13.0986667 61.016,12.752 61.016,12.288 C61.016,11.9573333 60.892,11.6866667 60.644,11.476 C60.396,11.2653333 60.0186667,11.144 59.512,11.112 L57.192,10.96 C56.984,10.9493333 56.768,11.0013333 56.544,11.116 C56.32,11.2306667 56.1293333,11.3893333 55.972,11.592 C55.8146667,11.7946667 55.736,12.024 55.736,12.28 C55.736,12.7173333 55.9746667,13.0586667 56.452,13.304 C56.9293333,13.5493333 57.664,13.672 58.656,13.672 Z M58.4,7.768 C58.9973333,7.768 59.4786667,7.62933333 59.844,7.352 C60.2093333,7.07466667 60.392,6.664 60.392,6.12 C60.392,5.56 60.2093333,5.13333333 59.844,4.84 C59.4786667,4.54666667 58.9973333,4.4 58.4,4.4 C57.7973333,4.4 57.3106667,4.548 56.94,4.844 C56.5693333,5.14 56.384,5.56533333 56.384,6.12 C56.384,6.64266667 56.56,7.048 56.912,7.336 C57.264,7.624 57.76,7.768 58.4,7.768 Z" id="Shape"></path>
                    <path d="M70.816,12.048 C70.2826667,12.048 69.8106667,11.9533333 69.4,11.764 C68.9893333,11.5746667 68.668,11.3013333 68.436,10.944 C68.204,10.5866667 68.088,10.1546667 68.088,9.648 C68.088,8.73066667 68.408,8.048 69.048,7.6 C69.688,7.152 70.7146667,6.912 72.128,6.88 L73.608,6.84 L73.608,6.192 C73.608,5.68533333 73.456,5.284 73.152,4.988 C72.848,4.692 72.376,4.544 71.736,4.544 C71.2613333,4.54933333 70.844,4.66133333 70.484,4.88 C70.124,5.09866667 69.8906667,5.456 69.784,5.952 L68.48,5.952 C68.512,5.41333333 68.664,4.95866667 68.936,4.588 C69.208,4.21733333 69.588,3.936 70.076,3.744 C70.564,3.552 71.1413333,3.456 71.808,3.456 C72.528,3.456 73.1266667,3.55733333 73.604,3.76 C74.0813333,3.96266667 74.4386667,4.26133333 74.676,4.656 C74.9133333,5.05066667 75.032,5.536 75.032,6.112 L75.032,11.888 L73.768,11.888 L73.664,10.336 C73.344,10.9813333 72.9373333,11.428 72.444,11.676 C71.9506667,11.924 71.408,12.048 70.816,12.048 Z M71.264,10.984 C71.5413333,10.984 71.8173333,10.9333333 72.092,10.832 C72.3666667,10.7306667 72.6186667,10.5933333 72.848,10.42 C73.0773333,10.2466667 73.26,10.052 73.396,9.836 C73.532,9.62 73.6026667,9.39733333 73.608,9.168 L73.608,7.752 L72.376,7.776 C71.7466667,7.78666667 71.22,7.85066667 70.796,7.968 C70.372,8.08533333 70.0546667,8.26933333 69.844,8.52 C69.6333333,8.77066667 69.528,9.09866667 69.528,9.504 C69.528,9.968 69.6893333,10.3306667 70.012,10.592 C70.3346667,10.8533333 70.752,10.984 71.264,10.984 Z" id="Shape"></path>
                    <path d="M81.648,12.048 C81.1626667,12.048 80.7533333,11.984 80.42,11.856 C80.0866667,11.728 79.8133333,11.564 79.6,11.364 C79.3866667,11.164 79.2213333,10.9586667 79.104,10.748 C78.9866667,10.5373333 78.9013333,10.352 78.848,10.192 L78.688,11.888 L77.56,11.888 L77.56,0 L79.048,0 L79.048,4.928 C79.1173333,4.78933333 79.2226667,4.63733333 79.364,4.472 C79.5053333,4.30666667 79.688,4.14666667 79.912,3.992 C80.136,3.83733333 80.4013333,3.70933333 80.708,3.608 C81.0146667,3.50666667 81.3653333,3.456 81.76,3.456 C82.7946667,3.456 83.6173333,3.816 84.228,4.536 C84.8386667,5.256 85.144,6.31733333 85.144,7.72 C85.144,8.58933333 85.0133333,9.348 84.752,9.996 C84.4906667,10.644 84.1013333,11.148 83.584,11.508 C83.0666667,11.868 82.4213333,12.048 81.648,12.048 Z M81.384,10.912 C82.056,10.912 82.6026667,10.652 83.024,10.132 C83.4453333,9.612 83.656,8.784 83.656,7.648 C83.656,6.68266667 83.46,5.93466667 83.068,5.404 C82.676,4.87333333 82.104,4.608 81.352,4.608 C80.8026667,4.608 80.3613333,4.72666667 80.028,4.964 C79.6946667,5.20133333 79.4493333,5.54666667 79.292,6 C79.1346667,6.45333333 79.0533333,7.00266667 79.048,7.648 C79.048,8.80533333 79.228,9.63866667 79.588,10.148 C79.948,10.6573333 80.5466667,10.912 81.384,10.912 Z" id="Shape"></path>
                    <path d="M91.168,12.048 C90.6826667,12.048 90.2733333,11.984 89.94,11.856 C89.6066667,11.728 89.3333333,11.564 89.12,11.364 C88.9066667,11.164 88.7413333,10.9586667 88.624,10.748 C88.5066667,10.5373333 88.4213333,10.352 88.368,10.192 L88.208,11.888 L87.08,11.888 L87.08,0 L88.568,0 L88.568,4.928 C88.6373333,4.78933333 88.7426667,4.63733333 88.884,4.472 C89.0253333,4.30666667 89.208,4.14666667 89.432,3.992 C89.656,3.83733333 89.9213333,3.70933333 90.228,3.608 C90.5346667,3.50666667 90.8853333,3.456 91.28,3.456 C92.3146667,3.456 93.1373333,3.816 93.748,4.536 C94.3586667,5.256 94.664,6.31733333 94.664,7.72 C94.664,8.58933333 94.5333333,9.348 94.272,9.996 C94.0106667,10.644 93.6213333,11.148 93.104,11.508 C92.5866667,11.868 91.9413333,12.048 91.168,12.048 Z M90.904,10.912 C91.576,10.912 92.1226667,10.652 92.544,10.132 C92.9653333,9.612 93.176,8.784 93.176,7.648 C93.176,6.68266667 92.98,5.93466667 92.588,5.404 C92.196,4.87333333 91.624,4.608 90.872,4.608 C90.3226667,4.608 89.8813333,4.72666667 89.548,4.964 C89.2146667,5.20133333 88.9693333,5.54666667 88.812,6 C88.6546667,6.45333333 88.5733333,7.00266667 88.568,7.648 C88.568,8.80533333 88.748,9.63866667 89.108,10.148 C89.468,10.6573333 90.0666667,10.912 90.904,10.912 Z" id="Shape"></path>
                    <path d="M96.6,11.888 L96.6,3.616 L98.008,3.616 L98.008,5.208 C98.1466667,4.81333333 98.3413333,4.48666667 98.592,4.228 C98.8426667,3.96933333 99.1293333,3.776 99.452,3.648 C99.7746667,3.52 100.109333,3.456 100.456,3.456 C100.578667,3.456 100.698667,3.464 100.816,3.48 C100.933333,3.496 101.024,3.52266667 101.088,3.56 L101.088,4.992 C101.008,4.95466667 100.905333,4.92933333 100.78,4.916 C100.654667,4.90266667 100.549333,4.896 100.464,4.896 C100.133333,4.87466667 99.824,4.89466667 99.536,4.956 C99.248,5.01733333 98.9946667,5.12266667 98.776,5.272 C98.5573333,5.42133333 98.3853333,5.61733333 98.26,5.86 C98.1346667,6.10266667 98.072,6.39733333 98.072,6.744 L98.072,11.888 L96.6,11.888 Z" id="Path"></path>
                    <path d="M103.856,8.096 C103.856,8.61866667 103.942667,9.092 104.116,9.516 C104.289333,9.94 104.553333,10.2773333 104.908,10.528 C105.262667,10.7786667 105.706667,10.904 106.24,10.904 C106.768,10.904 107.222667,10.7813333 107.604,10.536 C107.985333,10.2906667 108.229333,9.936 108.336,9.472 L109.736,9.472 C109.634667,10.032 109.410667,10.504 109.064,10.888 C108.717333,11.272 108.298667,11.5613333 107.808,11.756 C107.317333,11.9506667 106.805333,12.048 106.272,12.048 C105.498667,12.048 104.818667,11.88 104.232,11.544 C103.645333,11.208 103.186667,10.7253333 102.856,10.096 C102.525333,9.46666667 102.36,8.712 102.36,7.832 C102.36,6.96266667 102.509333,6.2 102.808,5.544 C103.106667,4.888 103.54,4.376 104.108,4.008 C104.676,3.64 105.36,3.456 106.16,3.456 C106.938667,3.456 107.597333,3.624 108.136,3.96 C108.674667,4.296 109.084,4.76933333 109.364,5.38 C109.644,5.99066667 109.784,6.71466667 109.784,7.552 L109.784,8.096 L103.856,8.096 Z M103.864,7.096 L108.36,7.096 C108.36,6.62133333 108.28,6.19333333 108.12,5.812 C107.96,5.43066667 107.716,5.12933333 107.388,4.908 C107.06,4.68666667 106.648,4.576 106.152,4.576 C105.634667,4.576 105.206667,4.7 104.868,4.948 C104.529333,5.196 104.276,5.51333333 104.108,5.9 C103.94,6.28666667 103.858667,6.68533333 103.864,7.096 Z" id="Shape"></path>
                    <path d="M115.104,3.456 C115.696,3.456 116.229333,3.56933333 116.704,3.796 C117.178667,4.02266667 117.566667,4.344 117.868,4.76 C118.169333,5.176 118.357333,5.66666667 118.432,6.232 L117.12,6.232 C117.072,5.944 116.961333,5.68 116.788,5.44 C116.614667,5.2 116.386667,5.008 116.104,4.864 C115.821333,4.72 115.490667,4.648 115.112,4.648 C114.402667,4.648 113.826667,4.904 113.384,5.416 C112.941333,5.928 112.72,6.712 112.72,7.768 C112.72,8.72266667 112.924,9.48666667 113.332,10.06 C113.74,10.6333333 114.341333,10.92 115.136,10.92 C115.514667,10.92 115.844,10.8466667 116.124,10.7 C116.404,10.5533333 116.629333,10.3586667 116.8,10.116 C116.970667,9.87333333 117.08,9.61333333 117.128,9.336 L118.416,9.336 C118.346667,9.89066667 118.16,10.3706667 117.856,10.776 C117.552,11.1813333 117.164,11.4946667 116.692,11.716 C116.22,11.9373333 115.690667,12.048 115.104,12.048 C114.362667,12.048 113.705333,11.8853333 113.132,11.56 C112.558667,11.2346667 112.109333,10.7546667 111.784,10.12 C111.458667,9.48533333 111.296,8.70666667 111.296,7.784 C111.296,6.92 111.444,6.164 111.74,5.516 C112.036,4.868 112.468,4.36266667 113.036,4 C113.604,3.63733333 114.293333,3.456 115.104,3.456 Z" id="Path"></path>
                    <path d="M120.44,11.888 L120.44,0 L121.88,0 L121.88,4.832 C122.018667,4.60266667 122.205333,4.388 122.44,4.188 C122.674667,3.988 122.96,3.82533333 123.296,3.7 C123.632,3.57466667 124.021333,3.512 124.464,3.512 C125.002667,3.512 125.490667,3.612 125.928,3.812 C126.365333,4.012 126.712,4.296 126.968,4.664 C127.224,5.032 127.352,5.46933333 127.352,5.976 L127.352,11.888 L125.872,11.888 L125.872,6.272 C125.872,5.776 125.702667,5.39333333 125.364,5.124 C125.025333,4.85466667 124.584,4.72 124.04,4.72 C123.672,4.72 123.325333,4.78 123,4.9 C122.674667,5.02 122.412,5.20133333 122.212,5.444 C122.012,5.68666667 121.912,5.99466667 121.912,6.368 L121.912,11.888 L120.44,11.888 Z" id="Path"></path>
                    <path d="M130.72,8.096 C130.72,8.61866667 130.806667,9.092 130.98,9.516 C131.153333,9.94 131.417333,10.2773333 131.772,10.528 C132.126667,10.7786667 132.570667,10.904 133.104,10.904 C133.632,10.904 134.086667,10.7813333 134.468,10.536 C134.849333,10.2906667 135.093333,9.936 135.2,9.472 L136.6,9.472 C136.498667,10.032 136.274667,10.504 135.928,10.888 C135.581333,11.272 135.162667,11.5613333 134.672,11.756 C134.181333,11.9506667 133.669333,12.048 133.136,12.048 C132.362667,12.048 131.682667,11.88 131.096,11.544 C130.509333,11.208 130.050667,10.7253333 129.72,10.096 C129.389333,9.46666667 129.224,8.712 129.224,7.832 C129.224,6.96266667 129.373333,6.2 129.672,5.544 C129.970667,4.888 130.404,4.376 130.972,4.008 C131.54,3.64 132.224,3.456 133.024,3.456 C133.802667,3.456 134.461333,3.624 135,3.96 C135.538667,4.296 135.948,4.76933333 136.228,5.38 C136.508,5.99066667 136.648,6.71466667 136.648,7.552 L136.648,8.096 L130.72,8.096 Z M130.728,7.096 L135.224,7.096 C135.224,6.62133333 135.144,6.19333333 134.984,5.812 C134.824,5.43066667 134.58,5.12933333 134.252,4.908 C133.924,4.68666667 133.512,4.576 133.016,4.576 C132.498667,4.576 132.070667,4.7 131.732,4.948 C131.393333,5.196 131.14,5.51333333 130.972,5.9 C130.804,6.28666667 130.722667,6.68533333 130.728,7.096 Z" id="Shape"></path>
                    <path d="M138.672,11.888 L138.672,3.616 L140.104,3.616 L140.104,4.816 C140.237333,4.58666667 140.422667,4.37066667 140.66,4.168 C140.897333,3.96533333 141.185333,3.80266667 141.524,3.68 C141.862667,3.55733333 142.253333,3.496 142.696,3.496 C143.218667,3.496 143.7,3.6 144.14,3.808 C144.58,4.016 144.932,4.34 145.196,4.78 C145.46,5.22 145.592,5.78666667 145.592,6.48 L145.592,11.888 L144.112,11.888 L144.112,6.624 C144.112,5.97866667 143.942667,5.5 143.604,5.188 C143.265333,4.876 142.826667,4.72 142.288,4.72 C141.914667,4.72 141.565333,4.78 141.24,4.9 C140.914667,5.02 140.650667,5.20133333 140.448,5.444 C140.245333,5.68666667 140.144,5.992 140.144,6.36 L140.144,11.888 L138.672,11.888 Z" id="Path"></path>
                </g>
            </g>
        </g>
    </g>
</svg>